<?xml version="1.0" encoding="UTF-8"?>
<svg id="Layer_1" xmlns="http://www.w3.org/2000/svg" version="1.1" viewBox="0 0 1024 1024">
  <!-- Generator: Adobe Illustrator 29.5.1, SVG Export Plug-In . SVG Version: 2.1.0 Build 141)  -->
  <defs>
    <style>
      .st0 {
        opacity: .5;
        stroke-dasharray: 10 10;
      }

      .st0, .st1 {
        isolation: isolate;
        stroke: #e0e0e0;
      }

      .st0, .st1, .st2 {
        fill: none;
      }

      .st0, .st2 {
        stroke-width: 2px;
      }

      .st1 {
        opacity: .3;
        stroke-dasharray: 5 5;
      }

      .st3 {
        fill: #fff;
      }

      .st2 {
        stroke: #f0f0f0;
      }
    </style>
  </defs>
  <rect class="st3" x="0" y="0" width="1024" height="1024" rx="180" ry="180"/>
  <rect class="st2" x="8" y="8" width="1008" height="1008" rx="172" ry="172"/>
  <circle class="st0" cx="512" cy="512" r="300"/>
  <line class="st1" x1="512" y1="212" x2="512" y2="812"/>
  <line class="st1" x1="212" y1="512" x2="812" y2="512"/>
  <path d="M854.7,359.8v205l-133.8,86.7-.6,133.2-223.6,134.2-327.4-191.1.3-408,344.6-214.8,300.5,185.9-299.2,183.6c-.8,31.6-.4,63.2-.5,94.7-.1,46.1,1.5,92.7-8.4,138.2-4.6,20.9-12.3,40.1-23.8,7.8-19.7-55.1-4.9-160.9-50-199.9-16.8-14.5-39.5-18.5-58.2-4.8-38.3,28.1-34.3,125.9-46,170.1-4.4,16.7-12,6.4-15.5-3.8-19.6-57.8,3.8-160-34.6-204.6s-68.6-19.3-63.9,18.6,12.3,17.1,17.3,27.2,5.1,21.6,5.7,35.2c2.4,51.9,4.3,152.6,49.9,186.6,20.4,15.2,52.7,16.1,71.5-2.1,27.1-26.2,32.5-116.2,39.8-154s1.5-11.7,4.6-15.8c3,0,5.2,16.3,5.6,19.2,3.9,25,4.8,51,8.3,76.2,7.2,51.9,24.9,145.4,95.4,138.3,54.4-5.5,66.3-88.3,71.6-131.2s2.6-97.2,4.1-146.2l266.3-164.5Z"/>
</svg>